<svg xmlns="http://www.w3.org/2000/svg" xmlns:xlink="http://www.w3.org/1999/xlink" width="100" zoomAndPan="magnify" viewBox="0 0 75 74.999997" height="100" preserveAspectRatio="xMidYMid meet" version="1.0"><defs><g/></defs><rect x="-7.5" width="90" fill="#ffffff" y="-7.5" height="89.999996" fill-opacity="1"/><rect x="-7.5" width="90" fill="#ffffff" y="-7.5" height="89.999996" fill-opacity="1"/><g fill="#000000" fill-opacity="1"><g transform="translate(3.000001, 62.874648)"><g><path d="M 21.53125 0 L 8.09375 0 L 8.09375 -64.375 L 45 -64.375 L 45 -53.1875 L 21.53125 -53.1875 L 21.53125 -36.59375 L 43.375 -36.59375 L 43.375 -25.453125 L 21.53125 -25.453125 Z M 21.53125 0 "/></g></g></g><g fill="#ff914d" fill-opacity="1"><g transform="translate(36.599999, 63.802218)"><g><path d="M 5.65625 -3.9375 C 5.65625 -5.601562 6.03125 -6.863281 6.78125 -7.71875 C 7.539062 -8.570312 8.625 -9 10.03125 -9 C 11.46875 -9 12.585938 -8.570312 13.390625 -7.71875 C 14.203125 -6.863281 14.609375 -5.601562 14.609375 -3.9375 C 14.609375 -2.332031 14.195312 -1.09375 13.375 -0.21875 C 12.5625 0.644531 11.445312 1.078125 10.03125 1.078125 C 8.769531 1.078125 7.722656 0.6875 6.890625 -0.09375 C 6.066406 -0.875 5.65625 -2.15625 5.65625 -3.9375 Z M 5.65625 -3.9375 "/></g></g></g></svg>